<?xml version="1.0" encoding="UTF-8"?>
<!DOCTYPE svg PUBLIC "-//W3C//DTD SVG 1.1//EN" "http://www.w3.org/Graphics/SVG/1.1/DTD/svg11.dtd">
<svg xmlns="http://www.w3.org/2000/svg" version="1.1" width="1200px" height="1678px" style="shape-rendering:geometricPrecision; text-rendering:geometricPrecision; image-rendering:optimizeQuality; fill-rule:evenodd; clip-rule:evenodd" xmlns:xlink="http://www.w3.org/1999/xlink">
<g><path style="opacity:0.96" fill="#11539c" d="M 587.5,4.5 C 595.507,4.33362 603.507,4.50029 611.5,5C 612,5.5 612.5,6 613,6.5C 613.499,11.4889 613.666,16.4889 613.5,21.5C 619.176,21.3339 624.843,21.5006 630.5,22C 631,22.5 631.5,23 632,23.5C 632.814,31.4128 632.647,39.2462 631.5,47C 625.509,47.4995 619.509,47.6662 613.5,47.5C 613.334,52.1785 613.501,56.8452 614,61.5C 620.57,64.2024 626.404,68.0358 631.5,73C 644.815,70.6614 655.649,74.8281 664,85.5C 682.464,75.2837 697.13,79.2837 708,97.5C 731.056,90.6928 745.056,99.0261 750,122.5C 762.362,118.173 773.029,120.84 782,130.5C 787.238,137.614 789.071,145.448 787.5,154C 794.809,154.27 801.475,156.436 807.5,160.5C 821.965,147.44 836.465,147.44 851,160.5C 852.833,163.5 854.667,166.5 856.5,169.5C 879.406,162.722 893.406,171.056 898.5,194.5C 917.076,191.035 928.91,198.368 934,216.5C 934.793,220.423 934.626,224.256 933.5,228C 949.728,228.025 959.894,235.858 964,251.5C 964.624,257.595 964.124,263.595 962.5,269.5C 977.31,274.431 984.143,284.764 983,300.5C 982.178,305.978 980.011,310.811 976.5,315C 991.736,323.49 996.736,336.157 991.5,353C 1002.59,364.425 1004.26,377.092 996.5,391C 1005.2,412.882 998.864,429.215 977.5,440C 967.4,443.704 957.567,443.204 948,438.5C 936.779,446.411 924.445,449.077 911,446.5C 910.418,458.915 903.918,465.582 891.5,466.5C 893.372,473.195 891.039,477.862 884.5,480.5C 886.475,486.057 887.642,491.723 888,497.5C 882.582,500.793 877.082,503.96 871.5,507C 874.879,513.865 873.212,519.198 866.5,523C 864.167,523.667 861.833,523.667 859.5,523C 717.865,458.513 572.198,447.846 422.5,491C 395.126,499.568 368.459,509.901 342.5,522C 333.046,525.607 327.38,522.44 325.5,512.5C 325.875,510.541 326.541,508.707 327.5,507C 321.918,503.96 316.418,500.793 311,497.5C 311.831,491.495 312.998,485.495 314.5,479.5C 308.097,477.909 305.763,473.909 307.5,467.5C 295.32,465.818 288.82,458.818 288,446.5C 274.555,449.077 262.221,446.411 251,438.5C 227.728,447.037 210.728,440.037 200,417.5C 195.855,408.184 197.022,399.684 203.5,392C 195.317,377.953 196.65,364.786 207.5,352.5C 202.613,335.987 207.613,323.487 222.5,315C 212.829,300.345 214.162,286.678 226.5,274C 230.038,271.731 233.705,269.731 237.5,268C 231.536,250.593 236.869,237.927 253.5,230C 257.5,229.167 261.5,228.333 265.5,227.5C 263.281,210.552 270.281,199.386 286.5,194C 291.222,193.223 295.889,193.39 300.5,194.5C 305.725,171.226 319.725,162.893 342.5,169.5C 350.795,153.578 363.462,148.078 380.5,153C 384.606,155.133 388.439,157.633 392,160.5C 397.781,156.184 404.281,154.184 411.5,154.5C 410.344,130.823 421.678,119.656 445.5,121C 446.766,121.309 447.933,121.809 449,122.5C 453.944,99.0261 467.944,90.6928 491,97.5C 502.209,79.1926 517.209,75.1926 536,85.5C 543.79,74.6779 554.29,70.5112 567.5,73C 572.686,67.9063 578.686,64.073 585.5,61.5C 586.493,56.8804 586.827,52.2137 586.5,47.5C 580.132,47.8297 573.798,47.4963 567.5,46.5C 566.367,38.8829 566.2,31.2163 567,23.5C 567.5,23 568,22.5 568.5,22C 574.491,21.5005 580.491,21.3338 586.5,21.5C 586.214,15.7414 586.548,10.0748 587.5,4.5 Z M 555.5,140.5 C 561.833,140.5 568.167,140.5 574.5,140.5C 576.413,148.016 577.413,155.683 577.5,163.5C 577.418,171.312 576.418,178.979 574.5,186.5C 574.207,190.45 575.04,194.116 577,197.5C 577.499,201.821 577.666,206.154 577.5,210.5C 527.591,203.904 479.591,210.571 433.5,230.5C 451.608,184.589 484.941,155.756 533.5,144C 540.955,142.675 548.288,141.509 555.5,140.5 Z M 766.5,230.5 C 720.08,210.655 671.746,203.988 621.5,210.5C 621.334,206.486 621.501,202.486 622,198.5C 626.667,190.167 626.667,181.833 622,173.5C 621.333,166.5 621.333,159.5 622,152.5C 623.846,149.431 624.846,146.098 625,142.5C 686.886,139.006 732.553,164.673 762,219.5C 763.513,223.188 765.013,226.855 766.5,230.5 Z M 289.5,291.5 C 292.954,283.541 297.454,276.208 303,269.5C 319.64,251.191 338.974,236.524 361,225.5C 362.167,231.348 364.667,236.514 368.5,241C 356.824,246.842 351.158,256.342 351.5,269.5C 329.439,273.075 308.772,280.408 289.5,291.5 Z M 909.5,291.5 C 890.544,280.624 870.211,273.29 848.5,269.5C 848.217,256.59 842.55,246.924 831.5,240.5C 834.756,235.987 836.922,230.987 838,225.5C 862.278,237.301 882.945,253.634 900,274.5C 903.824,279.818 906.991,285.484 909.5,291.5 Z"/></g>
<g><path style="opacity:1" fill="#f9bc15" d="M 573.5,41.5 C 573.5,37.1667 573.5,32.8333 573.5,28.5C 579.026,28.8214 584.36,28.4881 589.5,27.5C 591.45,22.2649 592.117,16.5982 591.5,10.5C 596.833,10.5 602.167,10.5 607.5,10.5C 607.193,16.0934 607.527,21.5934 608.5,27C 614.491,27.4995 620.491,27.6662 626.5,27.5C 626.5,32.1667 626.5,36.8333 626.5,41.5C 620.242,41.1903 614.076,41.5236 608,42.5C 607.333,50.1667 607.333,57.8333 608,65.5C 616.185,68.3443 623.351,72.8443 629.5,79C 643.928,76.2174 654.928,81.0507 662.5,93.5C 674.989,82.5663 687.156,82.8996 699,94.5C 701.575,97.7262 703.075,101.393 703.5,105.5C 708.85,103.005 714.517,101.339 720.5,100.5C 737.419,102.758 745.085,112.425 743.5,129.5C 748.58,128.2 753.746,127.2 759,126.5C 775.333,128.163 782.999,137.163 782,153.5C 780.691,155.686 780.524,157.853 781.5,160C 791.578,159.223 800.411,162.056 808,168.5C 811.514,165.007 815.347,161.84 819.5,159C 835.918,154.375 846.918,160.041 852.5,176C 857.964,174.389 863.631,173.222 869.5,172.5C 885.407,175.249 893.074,184.749 892.5,201C 898.693,199.654 905.026,199.321 911.5,200C 920.219,202.263 925.719,207.763 928,216.5C 928.73,222.637 928.23,228.637 926.5,234.5C 944.572,231.509 955.239,238.842 958.5,256.5C 957.985,261.712 956.652,266.712 954.5,271.5C 954.818,272.647 955.484,273.481 956.5,274C 965.829,275.076 972.329,279.91 976,288.5C 978.37,295.468 977.703,302.135 974,308.5C 971.819,311.344 969.653,314.178 967.5,317C 967.645,317.772 967.978,318.439 968.5,319C 986.421,325.015 991.754,336.848 984.5,354.5C 986.389,356.913 988.556,359.246 991,361.5C 995.073,366.859 996.406,372.859 995,379.5C 993.164,383.838 991.33,388.172 989.5,392.5C 991.495,395.344 993.328,398.344 995,401.5C 994.974,420.215 985.807,432.048 967.5,437C 964.833,437.667 962.167,437.667 959.5,437C 955.395,435.781 951.395,434.281 947.5,432.5C 934.289,441.386 919.955,443.886 904.5,440C 904.263,444.068 904.097,448.234 904,452.5C 901.804,457.106 898.138,459.772 893,460.5C 733.694,388.018 569.861,375.852 401.5,424C 370.634,433.51 340.634,445.176 311.5,459C 303.978,461.989 298.478,459.823 295,452.5C 294.903,448.234 294.737,444.068 294.5,440C 286.613,441.384 278.613,441.718 270.5,441C 263.638,439.233 257.304,436.4 251.5,432.5C 235.382,440.682 221.548,437.682 210,423.5C 204.358,416.262 202.691,408.262 205,399.5C 206.643,397.023 208.476,394.69 210.5,392.5C 203.206,382.076 202.706,371.409 209,360.5C 210.378,358.787 212.045,357.453 214,356.5C 214.283,352.706 213.617,349.039 212,345.5C 210.654,337.019 213.154,329.853 219.5,324C 222.789,321.522 226.456,319.856 230.5,319C 231.059,318.275 231.392,317.442 231.5,316.5C 217.941,303.041 218.274,289.875 232.5,277C 236.259,275.015 240.259,273.848 244.5,273.5C 243.039,268.062 241.706,262.562 240.5,257C 243.648,239.589 253.982,232.256 271.5,235C 272.081,234.107 272.415,233.107 272.5,232C 267.597,217.14 272.264,206.473 286.5,200C 293.279,199.369 299.946,199.703 306.5,201C 305.947,184.731 313.614,175.231 329.5,172.5C 335.369,173.222 341.036,174.389 346.5,176C 352.156,160.005 363.156,154.339 379.5,159C 383.977,161.485 387.811,164.652 391,168.5C 394.894,165.618 399.061,163.118 403.5,161C 408.167,160.667 412.833,160.333 417.5,160C 418.749,157.79 418.582,155.624 417,153.5C 415.993,137.345 423.493,128.345 439.5,126.5C 444.938,127.095 450.272,128.095 455.5,129.5C 453.931,112.939 461.264,103.272 477.5,100.5C 483.355,100.628 488.688,102.295 493.5,105.5C 494.167,105.167 494.833,104.833 495.5,104.5C 499.931,90.9007 509.264,84.734 523.5,86C 528.455,87.4758 532.788,89.9758 536.5,93.5C 539.599,89.1455 543.266,85.3122 547.5,82C 549.5,81 551.5,80 553.5,79C 558.87,78.5616 564.203,78.5616 569.5,79C 575.46,73.0505 582.46,68.7172 590.5,66C 591.647,58.2462 591.814,50.4128 591,42.5C 585.259,41.5251 579.425,41.1918 573.5,41.5 Z M 555.5,140.5 C 548.288,141.509 540.955,142.675 533.5,144C 484.941,155.756 451.608,184.589 433.5,230.5C 479.591,210.571 527.591,203.904 577.5,210.5C 577.666,206.154 577.499,201.821 577,197.5C 575.04,194.116 574.207,190.45 574.5,186.5C 576.418,178.979 577.418,171.312 577.5,163.5C 577.413,155.683 576.413,148.016 574.5,140.5C 568.167,140.5 561.833,140.5 555.5,140.5 Z M 766.5,230.5 C 765.013,226.855 763.513,223.188 762,219.5C 732.553,164.673 686.886,139.006 625,142.5C 624.846,146.098 623.846,149.431 622,152.5C 621.333,159.5 621.333,166.5 622,173.5C 626.667,181.833 626.667,190.167 622,198.5C 621.501,202.486 621.334,206.486 621.5,210.5C 671.746,203.988 720.08,210.655 766.5,230.5 Z M 289.5,291.5 C 308.772,280.408 329.439,273.075 351.5,269.5C 351.158,256.342 356.824,246.842 368.5,241C 364.667,236.514 362.167,231.348 361,225.5C 338.974,236.524 319.64,251.191 303,269.5C 297.454,276.208 292.954,283.541 289.5,291.5 Z M 909.5,291.5 C 906.991,285.484 903.824,279.818 900,274.5C 882.945,253.634 862.278,237.301 838,225.5C 836.922,230.987 834.756,235.987 831.5,240.5C 842.55,246.924 848.217,256.59 848.5,269.5C 870.211,273.29 890.544,280.624 909.5,291.5 Z"/></g>
<g><path style="opacity:1" fill="#b39e3a" d="M 589.5,27.5 C 584.36,28.4881 579.026,28.8214 573.5,28.5C 573.5,32.8333 573.5,37.1667 573.5,41.5C 572.514,37.03 572.181,32.3633 572.5,27.5C 578.167,27.5 583.833,27.5 589.5,27.5 Z"/></g>
<g><path style="opacity:1" fill="#1e599d" d="M 553.5,85.5 C 572.05,84.6347 578.55,92.968 573,110.5C 562.821,120.475 553.487,119.808 545,108.5C 541.683,98.4809 544.516,90.8142 553.5,85.5 Z"/></g>
<g><path style="opacity:1" fill="#245b9e" d="M 633.5,85.5 C 650.866,84.0242 657.699,91.6909 654,108.5C 648.039,117.283 640.206,119.449 630.5,115C 622.177,107.273 621.344,98.7727 628,89.5C 630.015,88.3034 631.849,86.9701 633.5,85.5 Z"/></g>
<g><path style="opacity:1" fill="#f9fbfc" d="M 556.5,88.5 C 567.651,88.1498 572.818,93.4831 572,104.5C 568.672,112.285 562.839,115.118 554.5,113C 548.333,109.155 546.166,103.655 548,96.5C 550.074,92.9231 552.907,90.2565 556.5,88.5 Z"/></g>
<g><path style="opacity:1" fill="#fafcfd" d="M 636.5,88.5 C 648.22,88.9371 653.054,94.9371 651,106.5C 647.155,112.667 641.655,114.834 634.5,113C 628.333,109.155 626.166,103.655 628,96.5C 630.098,92.8972 632.932,90.2305 636.5,88.5 Z"/></g>
<g><path style="opacity:1" fill="#1d5ba1" d="M 513.5,92.5 C 529.677,92.1668 536.177,99.8334 533,115.5C 527.109,124.573 519.276,126.74 509.5,122C 502.203,115.662 500.703,108.162 505,99.5C 507.441,96.5464 510.275,94.2131 513.5,92.5 Z"/></g>
<g><path style="opacity:1" fill="#235b9e" d="M 675.5,92.5 C 692.669,91.8406 699.169,99.8406 695,116.5C 688.667,124.686 680.834,126.52 671.5,122C 664.203,115.662 662.703,108.162 667,99.5C 669.441,96.5464 672.275,94.2131 675.5,92.5 Z"/></g>
<g><path style="opacity:1" fill="#fbfcfd" d="M 513.5,96.5 C 526.32,95.1527 531.82,100.819 530,113.5C 526.345,120.07 520.845,122.237 513.5,120C 506.93,116.345 504.763,110.845 507,103.5C 508.694,100.642 510.861,98.309 513.5,96.5 Z"/></g>
<g><path style="opacity:1" fill="#fafcfd" d="M 675.5,96.5 C 687.156,95.0018 692.99,100.002 693,111.5C 689.757,119.538 683.923,122.371 675.5,120C 669.333,116.155 667.166,110.655 669,103.5C 670.694,100.642 672.861,98.309 675.5,96.5 Z"/></g>
<g><path style="opacity:1" fill="#1e599e" d="M 472.5,107.5 C 482.51,105.754 489.677,109.421 494,118.5C 495.167,133.333 488.333,140.167 473.5,139C 461.901,132.75 459.401,123.917 466,112.5C 468.326,110.934 470.492,109.268 472.5,107.5 Z"/></g>
<g><path style="opacity:1" fill="#21599c" d="M 715.5,107.5 C 733.018,106.834 739.518,114.834 735,131.5C 726.683,141.248 717.683,141.914 708,133.5C 701.912,122.27 704.412,113.603 715.5,107.5 Z"/></g>
<g><path style="opacity:1" fill="#f9fbfd" d="M 475.5,110.5 C 489.425,111.682 493.592,118.682 488,131.5C 483.033,135.682 477.533,136.516 471.5,134C 462.733,124.434 464.067,116.6 475.5,110.5 Z"/></g>
<g><path style="opacity:1" fill="#f8fafc" d="M 717.5,110.5 C 730.516,110.676 735.35,117.009 732,129.5C 725.573,136.643 718.573,137.31 711,131.5C 706.028,122.126 708.195,115.126 717.5,110.5 Z"/></g>
<g><path style="opacity:1" fill="#1f5a9f" d="M 594.5,124.5 C 609.887,123.322 616.72,130.322 615,145.5C 609.538,156.098 601.372,158.932 590.5,154C 583.203,147.662 581.703,140.162 586,131.5C 588.441,128.546 591.275,126.213 594.5,124.5 Z"/></g>
<g><path style="opacity:1" fill="#fafbfd" d="M 594.5,128.5 C 606.127,126.97 611.96,131.97 612,143.5C 608.757,151.538 602.923,154.371 594.5,152C 587.93,148.345 585.763,142.845 588,135.5C 589.694,132.642 591.861,130.309 594.5,128.5 Z"/></g>
<g><path style="opacity:1" fill="#21599c" d="M 435.5,132.5 C 453.075,133.324 458.908,141.991 453,158.5C 446.079,166.108 438.246,167.274 429.5,162C 420.008,149.733 422.008,139.899 435.5,132.5 Z"/></g>
<g><path style="opacity:1" fill="#275b9c" d="M 755.5,132.5 C 769.874,132.37 776.374,139.37 775,153.5C 771.523,162.326 765.023,166.159 755.5,165C 744.513,160.525 741.013,152.691 745,141.5C 747.468,137.199 750.968,134.199 755.5,132.5 Z"/></g>
<g><path style="opacity:0.976" fill="#1d539a" d="M 549.5,134.5 C 558.839,134.334 568.173,134.5 577.5,135C 578.416,135.374 579.25,135.874 580,136.5C 579.955,141.43 580.955,146.097 583,150.5C 583.667,158.833 583.667,167.167 583,175.5C 579.667,182.5 579.667,189.5 583,196.5C 583.667,204.833 583.667,213.167 583,221.5C 579.718,228.473 579.718,235.473 583,242.5C 586.222,246.059 589.722,249.226 593.5,252C 593.241,253.261 592.574,254.261 591.5,255C 578.95,256.717 571.95,263.884 570.5,276.5C 556.103,278.749 549.103,287.249 549.5,302C 548.924,314.87 554.591,323.536 566.5,328C 571.379,328.836 576.212,329.669 581,330.5C 577.55,348.924 566.383,357.091 547.5,355C 531.635,349.768 525.135,338.934 528,322.5C 519.976,304.714 507.476,300.548 490.5,310C 484.989,314.522 482.323,320.356 482.5,327.5C 482.778,332.496 483.778,337.33 485.5,342C 481.7,361.111 470.034,369.444 450.5,367C 441.582,364.415 435.582,358.749 432.5,350C 432.645,349.228 432.978,348.561 433.5,348C 455.015,342.47 461.848,329.303 454,308.5C 449.349,297.918 441.183,293.085 429.5,294C 427.542,291.252 425.709,288.418 424,285.5C 421.344,283.004 418.344,281.004 415,279.5C 419.446,224.417 444.946,182.25 491.5,153C 509.778,143.105 529.112,136.939 549.5,134.5 Z M 555.5,140.5 C 548.288,141.509 540.955,142.675 533.5,144C 484.941,155.756 451.608,184.589 433.5,230.5C 479.591,210.571 527.591,203.904 577.5,210.5C 577.666,206.154 577.499,201.821 577,197.5C 575.04,194.116 574.207,190.45 574.5,186.5C 576.418,178.979 577.418,171.312 577.5,163.5C 577.413,155.683 576.413,148.016 574.5,140.5C 568.167,140.5 561.833,140.5 555.5,140.5 Z"/></g>
<g><path style="opacity:0.977" fill="#1c529b" d="M 621.5,134.5 C 700.937,133.455 753.437,170.455 779,245.5C 782.84,256.539 784.507,267.872 784,279.5C 777.833,283 773,287.833 769.5,294C 754.428,293.4 745.595,300.567 743,315.5C 740.38,326.214 743.213,335.047 751.5,342C 755.935,344.551 760.601,346.551 765.5,348C 766.059,348.725 766.392,349.558 766.5,350.5C 761.663,361.512 753.163,367.178 741,367.5C 725.437,365.938 716.271,357.438 713.5,342C 716.213,335.079 717.046,327.912 716,320.5C 707.961,304.82 696.128,300.987 680.5,309C 676.509,311.989 673.676,315.822 672,320.5C 673.962,344.871 662.795,356.371 638.5,355C 625.958,350.972 619.291,342.472 618.5,329.5C 642.905,329.73 653.072,317.73 649,293.5C 646.315,283.484 639.815,277.651 629.5,276C 627.009,263.841 619.676,256.841 607.5,255C 606.167,253.333 606.167,251.667 607.5,250C 619.052,243.016 621.886,233.516 616,221.5C 615.333,213.167 615.333,204.833 616,196.5C 620.657,189.538 620.657,182.538 616,175.5C 615.333,167.5 615.333,159.5 616,151.5C 618.36,145.878 620.193,140.212 621.5,134.5 Z M 766.5,230.5 C 765.013,226.855 763.513,223.188 762,219.5C 732.553,164.673 686.886,139.006 625,142.5C 624.846,146.098 623.846,149.431 622,152.5C 621.333,159.5 621.333,166.5 622,173.5C 626.667,181.833 626.667,190.167 622,198.5C 621.501,202.486 621.334,206.486 621.5,210.5C 671.746,203.988 720.08,210.655 766.5,230.5 Z"/></g>
<g><path style="opacity:1" fill="#f9fafc" d="M 435.5,136.5 C 449.938,136.419 454.772,143.085 450,156.5C 441.353,163.979 434.019,162.979 428,153.5C 426.16,145.851 428.66,140.184 435.5,136.5 Z"/></g>
<g><path style="opacity:1" fill="#fafbfd" d="M 755.5,136.5 C 768.366,135.906 773.532,141.906 771,154.5C 765.879,161.712 759.379,163.212 751.5,159C 747.758,154.483 746.591,149.316 748,143.5C 750.015,140.588 752.515,138.255 755.5,136.5 Z"/></g>
<g><path style="opacity:1" fill="#1f599d" d="M 365.5,163.5 C 374.25,162.458 380.75,165.792 385,173.5C 386.548,192.29 378.381,198.79 360.5,193C 351.618,184.626 351.285,175.96 359.5,167C 361.432,165.541 363.432,164.375 365.5,163.5 Z"/></g>
<g><path style="opacity:1" fill="#235b9e" d="M 824.5,163.5 C 840.677,163.167 847.177,170.833 844,186.5C 839.488,194.568 832.655,197.401 823.5,195C 813.374,189.283 810.874,181.116 816,170.5C 818.441,167.546 821.275,165.213 824.5,163.5 Z"/></g>
<g><path style="opacity:1" fill="#f9fbfd" d="M 364.5,167.5 C 377.978,166.47 383.478,172.47 381,185.5C 374.113,194.31 366.78,194.643 359,186.5C 355.768,178.573 357.601,172.24 364.5,167.5 Z"/></g>
<g><path style="opacity:1" fill="#285a9a" d="M 406.5,166.5 C 420.165,166.995 426.665,173.995 426,187.5C 420.894,198.639 412.727,201.805 401.5,197C 389.693,184.675 391.36,174.508 406.5,166.5 Z"/></g>
<g><path style="opacity:1" fill="#285a9a" d="M 785.5,166.5 C 799.165,166.995 805.665,173.995 805,187.5C 799.894,198.639 791.727,201.805 780.5,197C 768.701,184.63 770.367,174.463 785.5,166.5 Z"/></g>
<g><path style="opacity:1" fill="#fbfcfd" d="M 824.5,167.5 C 837.374,166.206 842.874,171.872 841,184.5C 833.288,195.155 825.621,195.155 818,184.5C 815.788,177.015 817.954,171.348 824.5,167.5 Z"/></g>
<g><path style="opacity:1" fill="#235a9c" d="M 596.5,169.5 C 607.803,169.148 614.136,174.481 615.5,185.5C 613.902,199.59 606.236,204.757 592.5,201C 583.018,194.232 581.185,185.732 587,175.5C 589.843,172.837 593.009,170.837 596.5,169.5 Z"/></g>
<g><path style="opacity:1" fill="#fafbfd" d="M 406.5,170.5 C 419.55,170.705 424.383,177.038 421,189.5C 414.264,196.971 407.264,197.304 400,190.5C 395.589,181.663 397.755,174.996 406.5,170.5 Z"/></g>
<g><path style="opacity:1" fill="#fafcfd" d="M 785.5,170.5 C 798.55,170.705 803.383,177.038 800,189.5C 793.264,196.971 786.264,197.304 779,190.5C 774.589,181.663 776.755,174.996 785.5,170.5 Z"/></g>
<g><path style="opacity:1" fill="#f9fbfc" d="M 595.5,173.5 C 607.129,172.704 612.629,178.037 612,189.5C 607.436,198.68 600.603,200.847 591.5,196C 585.175,187.069 586.508,179.569 595.5,173.5 Z"/></g>
<g><path style="opacity:1" fill="#1d589c" d="M 324.5,179.5 C 334.718,177.395 341.884,181.062 346,190.5C 347.167,205.333 340.333,212.167 325.5,211C 314.311,205.332 311.478,196.832 317,185.5C 319.114,182.879 321.614,180.879 324.5,179.5 Z"/></g>
<g><path style="opacity:1" fill="#22599b" d="M 863.5,179.5 C 879.635,178.462 886.469,185.795 884,201.5C 877.104,212.386 868.271,214.219 857.5,207C 849.483,195.62 851.483,186.454 863.5,179.5 Z"/></g>
<g><path style="opacity:1" fill="#f9fafc" d="M 326.5,182.5 C 339.55,182.705 344.383,189.038 341,201.5C 340.167,203.667 338.667,205.167 336.5,206C 323.898,209.399 317.731,204.566 318,191.5C 319.688,187.315 322.521,184.315 326.5,182.5 Z"/></g>
<g><path style="opacity:1" fill="#fafbfd" d="M 865.5,182.5 C 878.494,182.656 883.327,188.99 880,201.5C 872.634,209.423 865.3,209.423 858,201.5C 854.591,192.767 857.091,186.434 865.5,182.5 Z"/></g>
<g><path style="opacity:1" fill="#285c9c" d="M 289.5,205.5 C 305.709,205.867 311.876,213.867 308,229.5C 301.497,238.779 293.33,240.613 283.5,235C 277.051,228.364 275.885,220.864 280,212.5C 282.825,209.524 285.992,207.191 289.5,205.5 Z"/></g>
<g><path style="opacity:1" fill="#235a9c" d="M 901.5,205.5 C 919.063,206.296 924.896,214.962 919,231.5C 907.256,241.932 897.589,240.265 890,226.5C 888.637,216.554 892.47,209.554 901.5,205.5 Z"/></g>
<g><path style="opacity:1" fill="#20599d" d="M 385.5,206.5 C 400.366,205.864 407.199,212.864 406,227.5C 400.423,238.692 391.923,241.526 380.5,236C 374.051,229.364 372.885,221.864 377,213.5C 379.441,210.546 382.275,208.213 385.5,206.5 Z"/></g>
<g><path style="opacity:1" fill="#22599c" d="M 804.5,206.5 C 818.02,205.859 824.854,212.192 825,225.5C 821.43,236.538 813.93,240.705 802.5,238C 792.42,231.513 790.253,223.013 796,212.5C 798.637,210.109 801.47,208.109 804.5,206.5 Z"/></g>
<g><path style="opacity:1" fill="#fbfcfd" d="M 290.5,209.5 C 302.359,209.231 307.192,214.898 305,226.5C 299.465,235.339 292.465,236.673 284,230.5C 280.246,223.886 280.746,217.72 285.5,212C 287.315,211.243 288.981,210.41 290.5,209.5 Z"/></g>
<g><path style="opacity:1" fill="#fafbfd" d="M 901.5,209.5 C 915.941,209.421 920.774,216.087 916,229.5C 908.626,236.452 901.626,236.119 895,228.5C 891.539,220.113 893.706,213.78 901.5,209.5 Z"/></g>
<g><path style="opacity:1" fill="#f9fbfc" d="M 385.5,210.5 C 399.717,209.634 404.883,215.967 401,229.5C 391.428,238.468 383.762,237.135 378,225.5C 377.306,218.888 379.806,213.888 385.5,210.5 Z"/></g>
<g><path style="opacity:1" fill="#fafbfd" d="M 804.5,210.5 C 818.917,210.4 823.75,217.067 819,230.5C 810.015,238.114 802.682,236.781 797,226.5C 795.485,219.2 797.985,213.867 804.5,210.5 Z"/></g>
<g><path style="opacity:1" fill="#ed324e" d="M 519.5,212.5 C 539.253,212.028 558.919,213.028 578.5,215.5C 577.926,219.325 576.759,222.991 575,226.5C 573.256,236.27 576.09,244.437 583.5,251C 574.475,255.191 568.475,262.024 565.5,271.5C 554.762,274.737 547.929,281.737 545,292.5C 540.008,317.218 549.841,331.552 574.5,335.5C 567.341,348.943 556.674,352.776 542.5,347C 533.012,340.509 529.845,331.675 533,320.5C 527.115,304.305 515.615,297.471 498.5,300C 484.874,304.067 477.54,313.234 476.5,327.5C 477.291,332.54 478.291,337.54 479.5,342.5C 477.818,355.014 470.651,361.348 458,361.5C 450.017,361.925 443.851,358.758 439.5,352C 457.689,346.468 465.189,334.302 462,315.5C 458.972,298.302 448.805,288.969 431.5,287.5C 428.857,283.023 425.357,279.357 421,276.5C 421.143,264.115 423.477,252.115 428,240.5C 428.465,239.069 429.299,237.903 430.5,237C 458.727,223.196 488.394,215.029 519.5,212.5 Z"/></g>
<g><path style="opacity:1" fill="#ed324e" d="M 643.5,212.5 C 677.665,211.016 710.999,215.516 743.5,226C 753.01,229.089 762.01,233.256 770.5,238.5C 775.508,250.707 778.008,263.373 778,276.5C 773.643,279.357 770.143,283.023 767.5,287.5C 749.29,289.21 739.123,299.21 737,317.5C 734.782,329.139 738.282,338.639 747.5,346C 751.5,348 755.5,350 759.5,352C 752.262,361.404 742.928,364.07 731.5,360C 724.327,356.153 720.327,350.153 719.5,342C 725.571,327.734 722.904,315.401 711.5,305C 696.489,296.153 682.989,297.986 671,310.5C 665.853,317.445 664.353,325.111 666.5,333.5C 661.811,346.684 652.478,351.851 638.5,349C 631.833,346.333 627.167,341.667 624.5,335C 644.822,333.343 655.155,322.343 655.5,302C 655.603,286.343 648.269,276.176 633.5,271.5C 630.495,261.997 624.495,255.164 615.5,251C 623.112,244.163 625.946,235.663 624,225.5C 622.489,222.204 621.323,218.871 620.5,215.5C 628.283,214.344 635.95,213.344 643.5,212.5 Z"/></g>
<g><path style="opacity:1" fill="#235a9c" d="M 595.5,215.5 C 613.075,216.324 618.908,224.991 613,241.5C 605.527,249.609 597.36,250.442 588.5,244C 579.986,231.693 582.319,222.193 595.5,215.5 Z"/></g>
<g><path style="opacity:0.981" fill="#1d539a" d="M 362.5,217.5 C 364.144,217.286 365.644,217.62 367,218.5C 367.268,223.65 368.268,228.65 370,233.5C 372.514,236.678 375.014,239.844 377.5,243C 377.355,243.772 377.022,244.439 376.5,245C 358.368,251.101 353.202,262.934 361,280.5C 362.046,282.09 363.213,283.59 364.5,285C 368.365,287.095 372.032,289.428 375.5,292C 373.126,297.223 371.959,302.723 372,308.5C 359.133,315.236 354.8,325.569 359,339.5C 361.397,352.071 368.897,358.738 381.5,359.5C 386.219,358.979 390.886,358.479 395.5,358C 398.188,368.606 395.188,377.606 386.5,385C 372.383,393.507 359.55,392.007 348,380.5C 343.689,358.596 331.189,351.762 310.5,360C 298.675,370.429 297.509,381.929 307,394.5C 307.43,413.956 297.93,424.622 278.5,426.5C 276.077,426.406 273.744,425.906 271.5,425C 269.59,424.592 268.59,423.425 268.5,421.5C 273.388,418.107 277.888,414.107 282,409.5C 286.638,395.391 283.804,382.891 273.5,372C 271.083,370.374 268.583,368.874 266,367.5C 264.776,308.769 288.609,263.602 337.5,232C 345.896,227.14 354.23,222.307 362.5,217.5 Z M 289.5,291.5 C 308.772,280.408 329.439,273.075 351.5,269.5C 351.158,256.342 356.824,246.842 368.5,241C 364.667,236.514 362.167,231.348 361,225.5C 338.974,236.524 319.64,251.191 303,269.5C 297.454,276.208 292.954,283.541 289.5,291.5 Z"/></g>
<g><path style="opacity:0.983" fill="#1e539a" d="M 832.5,217.5 C 899.322,244.72 933.156,294.72 934,367.5C 923.588,372.626 917.254,380.959 915,392.5C 912.992,405.149 917.825,414.149 929.5,419.5C 931.222,422.749 930.222,424.582 926.5,425C 906.396,427.403 894.729,418.57 891.5,398.5C 891.667,397.167 891.833,395.833 892,394.5C 900.588,383.856 900.588,373.189 892,362.5C 883.188,356 873.688,354.834 863.5,359C 856.442,363.941 852.609,370.775 852,379.5C 839.78,392.31 826.28,393.81 811.5,384C 803.217,376.244 801.051,367.411 805,357.5C 825.555,363.285 837.555,355.618 841,334.5C 843.143,322.118 838.477,313.451 827,308.5C 826.883,303.186 826.049,298.02 824.5,293C 824.585,291.893 824.919,290.893 825.5,290C 837.59,285.248 843.09,276.415 842,263.5C 839.139,253.469 832.639,247.469 822.5,245.5C 822.34,243.801 822.506,242.134 823,240.5C 829.777,234.338 832.944,226.671 832.5,217.5 Z M 909.5,291.5 C 906.991,285.484 903.824,279.818 900,274.5C 882.945,253.634 862.278,237.301 838,225.5C 836.922,230.987 834.756,235.987 831.5,240.5C 842.55,246.924 848.217,256.59 848.5,269.5C 870.211,273.29 890.544,280.624 909.5,291.5 Z"/></g>
<g><path style="opacity:1" fill="#f9fbfc" d="M 595.5,219.5 C 608.528,219.015 613.695,225.015 611,237.5C 602.892,247.135 595.225,246.802 588,236.5C 585.785,228.6 588.285,222.934 595.5,219.5 Z"/></g>
<g><path style="opacity:1" fill="#275b9c" d="M 259.5,240.5 C 273.874,240.37 280.374,247.37 279,261.5C 275.523,270.326 269.023,274.159 259.5,273C 248.513,268.525 245.013,260.691 249,249.5C 251.468,245.199 254.968,242.199 259.5,240.5 Z"/></g>
<g><path style="opacity:1" fill="#22599b" d="M 931.5,240.5 C 949.087,241.352 954.92,250.019 949,266.5C 942.079,274.108 934.246,275.274 925.5,270C 916.008,257.733 918.008,247.899 931.5,240.5 Z"/></g>
<g><path style="opacity:1" fill="#fafbfd" d="M 259.5,244.5 C 272.355,243.877 277.522,249.877 275,262.5C 269.879,269.712 263.379,271.212 255.5,267C 251.758,262.483 250.591,257.316 252,251.5C 254.015,248.588 256.515,246.255 259.5,244.5 Z"/></g>
<g><path style="opacity:1" fill="#f9fafc" d="M 931.5,244.5 C 945.938,244.419 950.772,251.085 946,264.5C 937.353,271.979 930.019,270.979 924,261.5C 922.16,253.851 924.66,248.184 931.5,244.5 Z"/></g>
<g><path style="opacity:1" fill="#285a9a" d="M 375.5,251.5 C 385.835,250.413 392.668,254.746 396,264.5C 396.167,277.667 389.667,284.167 376.5,284C 363.568,278.64 360.401,269.806 367,257.5C 369.736,255.248 372.569,253.248 375.5,251.5 Z"/></g>
<g><path style="opacity:1" fill="#23599b" d="M 815.5,251.5 C 831.223,251.707 837.389,259.374 834,274.5C 827.933,284.392 819.766,286.559 809.5,281C 803.051,274.364 801.885,266.864 806,258.5C 808.529,255.115 811.696,252.782 815.5,251.5 Z"/></g>
<g><path style="opacity:1" fill="#fafcfd" d="M 375.5,255.5 C 388.473,254.964 393.639,260.964 391,273.5C 384.113,282.31 376.78,282.643 369,274.5C 365.515,266.152 367.682,259.819 375.5,255.5 Z"/></g>
<g><path style="opacity:1" fill="#f9fafc" d="M 814.5,255.5 C 827.396,254.227 832.896,259.893 831,272.5C 826.293,280.624 819.793,282.457 811.5,278C 804.186,269.384 805.186,261.884 814.5,255.5 Z"/></g>
<g><path style="opacity:1" fill="#20599d" d="M 591.5,271.5 C 618.698,270.52 629.198,283.187 623,309.5C 612.981,324.094 600.148,327.26 584.5,319C 572.917,309.092 570.417,297.259 577,283.5C 580.811,278.189 585.644,274.189 591.5,271.5 Z"/></g>
<g><path style="opacity:1" fill="#ec324e" d="M 349.5,273.5 C 350.5,273.5 351.5,273.5 352.5,273.5C 352.925,277.607 354.425,281.274 357,284.5C 360.65,288.373 364.484,291.873 368.5,295C 367.782,298.461 367.282,301.961 367,305.5C 354.495,312.184 349.828,322.517 353,336.5C 356.59,358.389 369.423,367.723 391.5,364.5C 387.954,379.948 378.288,386.448 362.5,384C 358.208,382.604 354.708,380.104 352,376.5C 350.345,363.359 343.178,354.859 330.5,351C 313.521,348.651 302.021,355.484 296,371.5C 295.333,375.833 295.333,380.167 296,384.5C 297.871,389.558 299.704,394.558 301.5,399.5C 300.076,412.759 292.743,419.593 279.5,420C 288.459,412.916 291.959,403.75 290,392.5C 287.558,380.592 281.391,371.259 271.5,364.5C 271.781,343.59 275.614,323.257 283,303.5C 288.606,297.574 295.106,292.741 302.5,289C 317.841,282.497 333.508,277.33 349.5,273.5 Z"/></g>
<g><path style="opacity:1" fill="#ec324e" d="M 846.5,273.5 C 862.893,277.02 878.893,281.853 894.5,288C 901.762,291.879 908.595,296.379 915,301.5C 923.345,321.724 927.512,342.724 927.5,364.5C 915.856,372.944 909.523,384.444 908.5,399C 908.893,408.125 912.893,415.125 920.5,420C 907.179,419.652 899.512,412.819 897.5,399.5C 899.304,395.217 901.137,390.884 903,386.5C 905.795,370.589 899.961,359.089 885.5,352C 864.508,347.41 851.674,355.577 847,376.5C 840.693,383.602 832.86,386.102 823.5,384C 814.047,380.929 809.047,374.429 808.5,364.5C 828.671,367.474 841.171,359.141 846,339.5C 850.044,324.927 845.711,313.594 833,305.5C 832.594,301.728 831.761,298.061 830.5,294.5C 835.086,291.421 839.253,287.754 843,283.5C 845.035,280.439 846.201,277.105 846.5,273.5 Z"/></g>
<g><path style="opacity:1" fill="#fbfcfd" d="M 594.5,274.5 C 612.674,273.845 621.841,282.511 622,300.5C 617.303,316.601 606.803,322.435 590.5,318C 577.284,310.434 573.784,299.601 580,285.5C 583.857,280.468 588.69,276.801 594.5,274.5 Z"/></g>
<g><path style="opacity:1" fill="#1e599d" d="M 239.5,280.5 C 248.704,279.186 255.537,282.519 260,290.5C 262.33,306.502 255.496,313.669 239.5,312C 229.08,306.496 226.247,298.329 231,287.5C 233.441,284.546 236.275,282.213 239.5,280.5 Z"/></g>
<g><path style="opacity:1" fill="#1e5a9f" d="M 949.5,280.5 C 967.078,280.563 973.245,288.896 968,305.5C 962.258,312.503 955.091,314.336 946.5,311C 938.314,304.667 936.48,296.834 941,287.5C 943.441,284.546 946.275,282.213 949.5,280.5 Z"/></g>
<g><path style="opacity:1" fill="#f9fafc" d="M 239.5,284.5 C 252.955,283.449 258.455,289.449 256,302.5C 251.152,309.511 244.986,311.011 237.5,307C 230.294,298.699 230.961,291.199 239.5,284.5 Z"/></g>
<g><path style="opacity:1" fill="#fafbfd" d="M 949.5,284.5 C 962.32,283.153 967.82,288.819 966,301.5C 958.333,312.167 950.667,312.167 943,301.5C 940.788,294.015 942.954,288.348 949.5,284.5 Z"/></g>
<g><path style="opacity:1" fill="#22599c" d="M 399.5,295.5 C 421.357,294.527 432.19,304.86 432,326.5C 426.737,342.885 415.571,349.718 398.5,347C 384.841,341.348 378.674,331.181 380,316.5C 382.95,306.055 389.45,299.055 399.5,295.5 Z"/></g>
<g><path style="opacity:1" fill="#21599c" d="M 786.5,295.5 C 808.357,294.527 819.19,304.86 819,326.5C 813.737,342.885 802.571,349.718 785.5,347C 772.359,341.553 766.192,331.719 767,317.5C 769.507,306.5 776.007,299.167 786.5,295.5 Z"/></g>
<g><path style="opacity:1" fill="#fcfcfd" d="M 399.5,299.5 C 419.843,298.01 429.343,307.343 428,327.5C 423.387,339.725 414.554,345.225 401.5,344C 384.784,337.521 379.95,326.021 387,309.5C 390.462,305.196 394.629,301.862 399.5,299.5 Z"/></g>
<g><path style="opacity:1" fill="#fcfdfd" d="M 786.5,299.5 C 806.832,298 816.332,307.333 815,327.5C 810.398,339.721 801.565,345.221 788.5,344C 775.21,339.589 769.377,330.422 771,316.5C 773.283,308.056 778.45,302.389 786.5,299.5 Z"/></g>
<g><path style="opacity:1" fill="#1d599d" d="M 229.5,325.5 C 243.367,324.539 250.2,330.873 250,344.5C 246.113,356.193 238.28,360.026 226.5,356C 219.286,351.037 216.786,344.203 219,335.5C 221.738,331.26 225.238,327.926 229.5,325.5 Z"/></g>
<g><path style="opacity:1" fill="#235a9c" d="M 960.5,325.5 C 976.086,325.077 982.586,332.41 980,347.5C 974.283,357.626 966.116,360.126 955.5,355C 944.956,342.96 946.623,333.127 960.5,325.5 Z"/></g>
<g><path style="opacity:1" fill="#f9fafc" d="M 229.5,329.5 C 243.705,328.604 248.872,334.937 245,348.5C 238.942,355.622 232.276,356.289 225,350.5C 219.419,341.984 220.919,334.984 229.5,329.5 Z"/></g>
<g><path style="opacity:1" fill="#f9fbfc" d="M 959.5,329.5 C 967.438,327.721 973.271,330.387 977,337.5C 978.342,349.157 973.176,354.657 961.5,354C 954.317,350.802 951.484,345.302 953,337.5C 954.652,334.354 956.819,331.688 959.5,329.5 Z"/></g>
<g><path style="opacity:1" fill="#285697" d="M 598.5,331.5 C 600.017,331.511 601.184,332.177 602,333.5C 604.908,349.413 613.574,361.079 628,368.5C 628.507,369.996 628.007,371.163 626.5,372C 608.26,372.825 590.093,372.659 572,371.5C 571.333,370.167 571.333,368.833 572,367.5C 579.004,363.67 585.004,358.67 590,352.5C 593.541,345.695 596.374,338.695 598.5,331.5 Z"/></g>
<g><path style="opacity:1" fill="#e8324f" d="M 598.5,346.5 C 601.535,350.191 604.368,354.191 607,358.5C 609.5,361 612,363.5 614.5,366C 604.5,366.667 594.5,366.667 584.5,366C 591.271,360.94 595.937,354.44 598.5,346.5 Z"/></g>
<g><path style="opacity:1" fill="#205399" d="M 509.5,349.5 C 511.199,349.34 512.866,349.506 514.5,350C 520.535,359.37 528.868,365.703 539.5,369C 541.421,370.241 541.754,371.741 540.5,373.5C 520.896,376.252 501.23,378.586 481.5,380.5C 481.343,379.127 481.51,377.793 482,376.5C 491.235,370.261 497.901,361.927 502,351.5C 504.607,350.877 507.107,350.21 509.5,349.5 Z"/></g>
<g><path style="opacity:1" fill="#205499" d="M 684.5,349.5 C 688.49,349.999 692.49,350.499 696.5,351C 701.047,361.888 708.214,370.721 718,377.5C 718.251,379.603 717.251,380.937 715,381.5C 696.617,378.186 678.117,375.686 659.5,374C 656.833,372.333 656.833,370.667 659.5,369C 670.408,365.57 678.741,359.07 684.5,349.5 Z"/></g>
<g><path style="opacity:1" fill="#1d539a" d="M 413.5,355.5 C 415.144,355.286 416.644,355.62 418,356.5C 424.058,371.122 434.892,379.955 450.5,383C 451.86,384.938 451.527,386.604 449.5,388C 432.019,391.705 414.686,395.705 397.5,400C 396.483,398.951 396.316,397.784 397,396.5C 409.008,385.479 414.508,371.812 413.5,355.5 Z"/></g>
<g><path style="opacity:1" fill="#e9334f" d="M 505.5,355.5 C 507.924,355.192 510.257,355.526 512.5,356.5C 516.728,361.897 521.728,366.397 527.5,370C 516.48,371.202 505.48,372.202 494.5,373C 499.827,368.172 503.494,362.339 505.5,355.5 Z"/></g>
<g><path style="opacity:1" fill="#e8334f" d="M 687.5,355.5 C 689.827,355.665 691.993,356.331 694,357.5C 696.634,363.272 700.134,368.439 704.5,373C 693.491,372.466 682.491,371.466 671.5,370C 677.627,366.04 682.96,361.207 687.5,355.5 Z"/></g>
<g><path style="opacity:1" fill="#205499" d="M 781.5,355.5 C 783.144,355.286 784.644,355.62 786,356.5C 785.083,372.432 790.417,385.765 802,396.5C 802.684,397.784 802.517,398.951 801.5,400C 799.833,400.667 798.167,400.667 796.5,400C 780.17,395.712 764.003,391.212 748,386.5C 747.316,385.216 747.483,384.049 748.5,383C 764.536,379.791 775.536,370.624 781.5,355.5 Z"/></g>
<g><path style="opacity:1" fill="#e73350" d="M 780.5,368.5 C 782.352,376.869 785.686,384.703 790.5,392C 780.795,389.99 771.129,387.49 761.5,384.5C 769.272,380.794 775.605,375.461 780.5,368.5 Z"/></g>
<g><path style="opacity:1" fill="#e83350" d="M 417.5,368.5 C 423.239,374.897 429.906,380.23 437.5,384.5C 427.78,387.179 418.114,389.679 408.5,392C 413.876,385.08 416.876,377.247 417.5,368.5 Z"/></g>
<g><path style="opacity:1" fill="#225a9d" d="M 232.5,374.5 C 248.678,372.665 259.511,379.332 265,394.5C 266.951,408.768 261.451,418.935 248.5,425C 225.193,429.029 213.36,419.196 213,395.5C 215.95,385.055 222.45,378.055 232.5,374.5 Z"/></g>
<g><path style="opacity:1" fill="#245b9d" d="M 954.5,374.5 C 970.289,372.971 980.789,379.638 986,394.5C 987.957,408.756 982.457,418.923 969.5,425C 946.155,428.986 934.321,419.153 934,395.5C 937.025,384.643 943.858,377.643 954.5,374.5 Z"/></g>
<g><path style="opacity:1" fill="#fcfdfe" d="M 231.5,378.5 C 245.303,375.984 255.136,380.984 261,393.5C 262.662,414.837 252.829,424.337 231.5,422C 215.657,413.137 212.49,400.97 222,385.5C 225.068,382.917 228.235,380.584 231.5,378.5 Z"/></g>
<g><path style="opacity:1" fill="#fcfdfe" d="M 952.5,378.5 C 973.328,376.498 983.161,385.831 982,406.5C 976.671,419.917 966.838,425.084 952.5,422C 937.281,413.675 933.781,401.842 942,386.5C 945.299,383.449 948.799,380.782 952.5,378.5 Z"/></g>
<g><path style="opacity:1" fill="#1d539a" d="M 337.5,396.5 C 342.913,398.724 348.246,401.224 353.5,404C 358.063,405.475 362.73,406.308 367.5,406.5C 368.035,409.238 367.035,411.072 364.5,412C 349.261,417.413 334.261,423.413 319.5,430C 317.246,431.15 314.913,431.484 312.5,431C 311.483,429.951 311.316,428.784 312,427.5C 318.119,420.595 322.119,412.595 324,403.5C 328.83,401.681 333.33,399.347 337.5,396.5 Z"/></g>
<g><path style="opacity:1" fill="#1f5399" d="M 858.5,396.5 C 863.95,398.975 869.45,401.309 875,403.5C 876.886,412.606 880.886,420.606 887,427.5C 887.49,428.793 887.657,430.127 887.5,431.5C 884.729,431.579 882.063,431.079 879.5,430C 863.73,423.3 847.897,416.8 832,410.5C 831.219,409.056 831.386,407.723 832.5,406.5C 838.642,405.631 844.642,404.131 850.5,402C 853.621,400.694 856.287,398.86 858.5,396.5 Z"/></g>
<g><path style="opacity:1" fill="#e9324f" d="M 338.5,402.5 C 343.414,405.789 348.748,408.289 354.5,410C 344.943,413.112 335.61,416.779 326.5,421C 325.5,421.667 324.5,421.667 323.5,421C 325.739,416.685 327.572,412.185 329,407.5C 332.434,406.201 335.6,404.535 338.5,402.5 Z"/></g>
<g><path style="opacity:1" fill="#e9324f" d="M 859.5,402.5 C 862.864,404.683 866.53,406.016 870.5,406.5C 871.368,411.435 873.034,416.102 875.5,420.5C 874.635,421.583 873.635,421.749 872.5,421C 863.614,417.057 854.614,413.39 845.5,410C 850.674,408.249 855.341,405.749 859.5,402.5 Z"/></g>
<g><path style="opacity:1" fill="#f9bc15" d="M 574.5,403.5 C 683.34,400.634 787.007,422.134 885.5,468C 886.833,469.667 886.833,471.333 885.5,473C 882.044,472.907 879.044,473.907 876.5,476C 870.981,478.34 865.314,480.173 859.5,481.5C 860.692,490.599 862.359,499.599 864.5,508.5C 867.846,510.562 868.346,513.228 866,516.5C 865.107,517.081 864.107,517.415 863,517.5C 710.69,448.974 555.19,440.807 396.5,493C 376.709,499.895 357.376,507.895 338.5,517C 334.994,517.844 332.661,516.51 331.5,513C 331.919,510.914 333.086,509.414 335,508.5C 335.652,500.061 337.485,491.894 340.5,484C 340.355,483.228 340.022,482.561 339.5,482C 330.265,479.043 321.431,475.543 313,471.5C 312.316,470.216 312.483,469.049 313.5,468C 396.212,428.738 483.212,407.238 574.5,403.5 Z"/></g>
<g><path style="opacity:1" fill="#265398" d="M 597.5,411.5 C 613.333,416.411 629,421.911 644.5,428C 646.158,428.725 646.658,429.892 646,431.5C 630.609,437.464 615.109,443.13 599.5,448.5C 584.079,443.292 568.746,437.792 553.5,432C 552.075,430.286 552.408,428.953 554.5,428C 568.972,422.57 583.305,417.07 597.5,411.5 Z"/></g>
<g><path style="opacity:1" fill="#ec324e" d="M 597.5,415.5 C 611.379,419.627 625.046,424.46 638.5,430C 626.534,434.657 614.534,439.324 602.5,444C 597.667,444.063 593.001,443.063 588.5,441C 579.088,437.529 569.754,433.863 560.5,430C 572.972,425.237 585.306,420.404 597.5,415.5 Z"/></g>
<g><path style="opacity:1" fill="#1c589d" d="M 512.5,418.5 C 531.275,417.43 537.775,425.763 532,443.5C 523.626,452.382 514.96,452.715 506,444.5C 499.771,433.702 501.938,425.036 512.5,418.5 Z"/></g>
<g><path style="opacity:1" fill="#245a9d" d="M 674.5,418.5 C 691.866,417.024 698.699,424.691 695,441.5C 689.109,450.573 681.276,452.74 671.5,448C 663.726,440.751 662.559,432.584 668,423.5C 670.326,421.934 672.492,420.268 674.5,418.5 Z"/></g>
<g><path style="opacity:1" fill="#f9fbfc" d="M 515.5,421.5 C 526.669,421.168 531.836,426.501 531,437.5C 526.478,446.673 519.645,448.84 510.5,444C 503.894,434.547 505.561,427.047 515.5,421.5 Z"/></g>
<g><path style="opacity:1" fill="#f9fbfd" d="M 676.5,421.5 C 688.705,421.534 693.872,427.534 692,439.5C 688.155,445.667 682.655,447.834 675.5,446C 668.862,441.983 666.696,436.15 669,428.5C 671.069,425.594 673.569,423.261 676.5,421.5 Z"/></g>
<g><path style="opacity:1" fill="#0c539d" d="M 433.5,432.5 C 450.866,433.806 468.199,435.473 485.5,437.5C 485.67,438.822 485.337,439.989 484.5,441C 471.5,450 458.5,459 445.5,468C 428.474,467.053 411.474,465.553 394.5,463.5C 394.238,462.022 394.571,460.689 395.5,459.5C 408.233,450.478 420.9,441.478 433.5,432.5 Z"/></g>
<g><path style="opacity:1" fill="#0d539d" d="M 754.5,432.5 C 758.967,432.133 763.3,432.633 767.5,434C 779.658,442.913 791.992,451.579 804.5,460C 805.451,460.718 805.617,461.551 805,462.5C 787.958,465.35 770.792,467.183 753.5,468C 739.868,458.695 726.535,449.028 713.5,439C 713.645,438.228 713.978,437.561 714.5,437C 728.002,435.667 741.336,434.167 754.5,432.5 Z"/></g>
<g><path style="opacity:1" fill="#1d599d" d="M 357.5,460.5 C 374.863,459.695 381.363,467.695 377,484.5C 370.101,493.116 361.934,494.616 352.5,489C 343.207,477.485 344.874,467.985 357.5,460.5 Z"/></g>
<g><path style="opacity:1" fill="#235b9e" d="M 830.5,460.5 C 845.823,459.324 852.989,466.324 852,481.5C 846.496,491.92 838.329,494.753 827.5,490C 819.632,482.788 818.466,474.621 824,465.5C 826.326,463.934 828.492,462.268 830.5,460.5 Z"/></g>
<g><path style="opacity:1" fill="#f9fbfc" d="M 359.5,463.5 C 370.669,463.168 375.836,468.501 375,479.5C 371.757,487.538 365.923,490.371 357.5,488C 350.836,483.337 349.003,477.17 352,469.5C 354.114,466.879 356.614,464.879 359.5,463.5 Z"/></g>
<g><path style="opacity:1" fill="#fafcfd" d="M 833.5,463.5 C 846.533,464.371 851.033,471.038 847,483.5C 842.772,488.087 837.606,489.587 831.5,488C 824.93,484.345 822.763,478.845 825,471.5C 827.098,467.897 829.932,465.23 833.5,463.5 Z"/></g>
<g><path style="opacity:0.983" fill="#06529e" d="M 567.5,478.5 C 756.845,472.737 915.678,538.737 1044,676.5C 1162.54,813.477 1211.54,972.477 1191,1153.5C 1165.5,1321.82 1085,1456.65 949.5,1558C 816.44,1651.43 669.107,1686.76 507.5,1664C 332.015,1633.08 195.182,1543.91 97,1396.5C 9.68657,1255.63 -16.6468,1103.96 18,941.5C 59.8918,772.681 155.392,644.181 304.5,556C 386.345,510.126 474.011,484.292 567.5,478.5 Z"/></g>
<g><path style="opacity:1" fill="#ea324f" d="M 319.5,478.5 C 323.355,480.286 327.355,481.786 331.5,483C 333.478,483.481 334.811,484.647 335.5,486.5C 334.294,492.33 332.627,497.996 330.5,503.5C 325.133,500.822 320.133,497.655 315.5,494C 316.607,488.739 317.94,483.573 319.5,478.5 Z"/></g>
<g><path style="opacity:1" fill="#ea324f" d="M 876.5,479.5 C 877.833,479.5 879.167,479.5 880.5,479.5C 881.924,484.781 882.758,490.114 883,495.5C 878.086,498.04 873.253,500.706 868.5,503.5C 866.603,497.745 864.936,491.912 863.5,486C 867.588,483.289 871.921,481.123 876.5,479.5 Z"/></g>
<g><path style="opacity:1" fill="#fcbd12" d="M 576.5,495.5 C 758.276,492.658 910.443,557.658 1033,690.5C 1142.88,817.889 1190.55,965.889 1176,1134.5C 1156.07,1296.25 1083.23,1428.08 957.5,1530C 814.433,1638.42 654.433,1675.42 477.5,1641C 318.407,1603.6 194.907,1516.43 107,1379.5C 28.2872,1248.57 3.28723,1107.9 32,957.5C 64.057,815.128 137.557,699.628 252.5,611C 348.791,540.067 456.791,501.567 576.5,495.5 Z"/></g>
<g><path style="opacity:1" fill="#0a539e" d="M 575.5,546.5 C 739.476,542.941 877.643,600.274 990,718.5C 1098.43,841.477 1142.76,984.81 1123,1148.5C 1094.87,1317.08 1008.03,1445.24 862.5,1533C 742.946,1599.08 616.28,1618.08 482.5,1590C 334.7,1553.41 221.533,1470.24 143,1340.5C 81.9839,1232.75 59.9839,1117.41 77,994.5C 101.619,851.346 171.452,736.179 286.5,649C 372.677,586.595 469.011,552.429 575.5,546.5 Z"/></g>
<g><path style="opacity:1" fill="#fdfefe" d="M 568.5,563.5 C 731.039,557.888 867.873,613.888 979,731.5C 1084.7,852.657 1126.7,993.323 1105,1153.5C 1076.52,1312.43 993.687,1433.6 856.5,1517C 739.335,1582.69 615.001,1601.36 483.5,1573C 336.798,1535.58 225.964,1451.41 151,1320.5C 84.613,1194.35 70.9464,1062.68 110,925.5C 157.018,781.152 248.851,675.985 385.5,610C 443.768,583.35 504.768,567.85 568.5,563.5 Z"/></g>
<g><path style="opacity:1" fill="#04529e" d="M 603.5,1395.5 C 602.502,1419.66 602.169,1443.99 602.5,1468.5C 572.5,1468.5 542.5,1468.5 512.5,1468.5C 512.5,1440.5 512.5,1412.5 512.5,1384.5C 421.192,1359.01 352.358,1305.01 306,1222.5C 266.864,1149.52 256.364,1072.69 274.5,992C 256.346,973.179 238.179,954.345 220,935.5C 177.739,1049.86 187.406,1159.53 249,1264.5C 262.575,1287.07 278.741,1307.57 297.5,1326C 295.014,1329.16 292.514,1332.32 290,1335.5C 270.959,1354.37 252.126,1373.37 233.5,1392.5C 159.321,1311.43 117.821,1215.76 109,1105.5C 102.263,954.319 152.096,825.485 258.5,719C 289.801,689.029 324.467,663.695 362.5,643C 363.5,642.333 364.5,642.333 365.5,643C 402.833,682 440.167,721 477.5,760C 498.798,753.592 520.465,748.259 542.5,744C 601.209,735.17 658.542,740.67 714.5,760.5C 719.362,758.149 723.528,754.816 727,750.5C 761.37,713.299 796.536,676.965 832.5,641.5C 933.382,696.889 1006.55,777.555 1052,883.5C 1096.64,994.334 1101.64,1107 1067,1221.5C 1019.4,1360.6 928.896,1460.93 795.5,1522.5C 752.042,1477.87 708.375,1433.37 664.5,1389C 652.835,1390.29 641.169,1391.95 629.5,1394C 620.826,1394.46 612.159,1394.96 603.5,1395.5 Z"/></g>
<g><path style="opacity:1" fill="#fcbd11" d="M 528.5,1307.5 C 528.56,1308.04 528.893,1308.38 529.5,1308.5C 530.5,1228.84 530.833,1149.17 530.5,1069.5C 582.5,1069.5 634.5,1069.5 686.5,1069.5C 686.5,1083.5 686.5,1097.5 686.5,1111.5C 653.167,1111.5 619.833,1111.5 586.5,1111.5C 586.5,1134.83 586.5,1158.17 586.5,1181.5C 619.5,1181.5 652.5,1181.5 685.5,1181.5C 685.5,1197.83 685.5,1214.17 685.5,1230.5C 652.5,1230.5 619.5,1230.5 586.5,1230.5C 586.5,1259.5 586.5,1288.5 586.5,1317.5C 633.75,1318.52 677.75,1307.02 718.5,1283C 744.592,1268.09 767.925,1249.59 788.5,1227.5C 803.694,1241.86 818.361,1256.69 832.5,1272C 796.228,1313.33 751.895,1343 699.5,1361C 662.882,1373.55 625.215,1379.38 586.5,1378.5C 586.5,1403.17 586.5,1427.83 586.5,1452.5C 567.5,1452.5 548.5,1452.5 529.5,1452.5C 529.5,1425.5 529.5,1398.5 529.5,1371.5C 441.687,1350.83 374.187,1302.17 327,1225.5C 277.847,1140.64 269.514,1051.97 302,959.5C 327.087,898.488 366.587,848.988 420.5,811C 396.603,786.525 372.936,761.859 349.5,737C 348.5,736.333 347.5,736.333 346.5,737C 219.526,839.178 164.859,971.678 182.5,1134.5C 195.548,1207.25 226.214,1271.25 274.5,1326.5C 261.126,1340.71 247.459,1354.21 233.5,1367C 151.22,1267.8 115.72,1153.64 127,1024.5C 146.932,871.704 221.099,753.538 349.5,670C 353.165,668.503 356.498,666.503 359.5,664C 360.5,663.333 361.5,663.333 362.5,664C 399.315,703.315 436.648,742.148 474.5,780.5C 556.173,748.563 637.839,748.563 719.5,780.5C 725.115,776.388 730.281,771.722 735,766.5C 768.167,732 801.333,697.5 834.5,663C 835.5,662.333 836.5,662.333 837.5,663C 957.688,736.099 1033.19,841.599 1064,979.5C 1087.58,1109.96 1062.91,1230.29 990,1340.5C 982.382,1351.12 974.382,1361.45 966,1371.5C 950.125,1355.96 934.625,1340.13 919.5,1324C 1003.87,1223.02 1032.03,1107.86 1004,978.5C 983.717,894.331 942.551,822.497 880.5,763C 869.543,753.207 857.876,744.373 845.5,736.5C 821.47,760.529 797.804,784.862 774.5,809.5C 804.786,831.286 830.953,857.286 853,887.5C 855.267,890.701 856.934,894.034 858,897.5C 843,910.5 828,923.5 813,936.5C 792.592,903.425 766.092,876.258 733.5,855C 732.5,854.333 731.5,854.333 730.5,855C 687.02,901.647 643.02,947.814 598.5,993.5C 552.831,947.164 507.498,900.498 462.5,853.5C 461.635,852.417 460.635,852.251 459.5,853C 383.789,904.895 344.455,977.062 341.5,1069.5C 345.265,1172.9 393.598,1247.06 486.5,1292C 500.254,1297.86 514.254,1303.03 528.5,1307.5 Z"/></g>
<g><path style="opacity:1" fill="#fefefe" d="M 846.5,758.5 C 854.221,763.374 861.554,768.874 868.5,775C 936.769,841.026 978.602,921.193 994,1015.5C 1003.77,1086.08 994.773,1154.08 967,1219.5C 961.429,1231.65 955.096,1243.31 948,1254.5C 851.137,1155.3 754.637,1055.8 658.5,956C 683.679,929.322 709.012,902.822 734.5,876.5C 766.174,899.211 790.841,927.878 808.5,962.5C 832.48,942.354 856.314,922.021 880,901.5C 880.257,898.983 879.59,896.65 878,894.5C 856.778,861.274 830.612,832.44 799.5,808C 814.638,791.862 830.138,776.029 846,760.5C 846.464,759.906 846.631,759.239 846.5,758.5 Z"/></g>
<g><path style="opacity:1" fill="#0d539e" d="M 577.5,813.5 C 611.306,813.017 644.306,817.85 676.5,828C 650.667,855.167 624.833,882.333 599,909.5C 571.652,881.652 544.485,853.652 517.5,825.5C 537.33,820.102 557.33,816.102 577.5,813.5 Z"/></g>
<g><path style="opacity:1" fill="#fbfcfd" d="M 577.5,830.5 C 600.071,830.403 622.404,832.569 644.5,837C 629.265,852.898 614.099,868.732 599,884.5C 582.719,868.386 566.553,852.052 550.5,835.5C 559.558,833.466 568.558,831.799 577.5,830.5 Z"/></g>
<g><path style="opacity:1" fill="#cda933" d="M 686.5,1069.5 C 634.5,1069.5 582.5,1069.5 530.5,1069.5C 530.833,1149.17 530.5,1228.84 529.5,1308.5C 528.893,1308.38 528.56,1308.04 528.5,1307.5C 529.499,1228 529.833,1148.34 529.5,1068.5C 582.003,1068.17 634.336,1068.5 686.5,1069.5 Z"/></g>
<g><path style="opacity:1" fill="#fdfefe" d="M 512.5,1233.5 C 512.83,1250.34 512.497,1267.01 511.5,1283.5C 435.007,1254.84 385.841,1201.18 364,1122.5C 360.304,1107.71 358.637,1092.71 359,1077.5C 410.396,1129.4 461.563,1181.4 512.5,1233.5 Z"/></g>
<g><path style="opacity:1" fill="#2d70af" d="M 512.5,1233.5 C 513.827,1250.34 513.827,1267.34 512.5,1284.5C 511.893,1284.38 511.56,1284.04 511.5,1283.5C 512.497,1267.01 512.83,1250.34 512.5,1233.5 Z"/></g>
<g><path style="opacity:1" fill="#75a0ca" d="M 603.5,1395.5 C 603.5,1420.17 603.5,1444.83 603.5,1469.5C 572.995,1469.83 542.662,1469.5 512.5,1468.5C 542.5,1468.5 572.5,1468.5 602.5,1468.5C 602.169,1443.99 602.502,1419.66 603.5,1395.5 Z"/></g>
</svg>
